<svg width="36" height="36" viewBox="0 0 36 36" fill="none" xmlns="http://www.w3.org/2000/svg">
<g clip-path="url(#clip0_9_1745)">
<g clip-path="url(#clip1_9_1745)">
<g clip-path="url(#clip2_9_1745)">
<path d="M0.70153 10.545H35.2963V20.8106H0.70153V10.545Z" fill="#1D8F47"/>
<path d="M0.70153 20.8116H35.2963V34.7605H0.70153V20.8116Z" fill="white"/>
<path d="M27.8921 0.701538L6.74793 8.39957L9.57835 16.1683H18.285L31.7389 11.2709L27.8921 0.701538Z" fill="#C2D55D"/>
<path d="M19.0054 9.17622C18.8745 9.22373 18.7607 9.30898 18.6783 9.42118C18.5959 9.53338 18.5486 9.66749 18.5424 9.80656C18.5363 9.94562 18.5715 10.0834 18.6437 10.2025C18.7158 10.3215 18.8216 10.4165 18.9478 10.4754C19.0739 10.5343 19.2147 10.5544 19.3523 10.5333C19.4899 10.5122 19.6181 10.4507 19.7208 10.3567C19.8234 10.2627 19.8959 10.1404 19.929 10.0052C19.9622 9.86996 19.9544 9.72795 19.9069 9.59714C19.8754 9.51024 19.8271 9.4304 19.7647 9.36219C19.7024 9.29399 19.6272 9.23875 19.5434 9.19965C19.4597 9.16055 19.3691 9.13835 19.2767 9.13433C19.1844 9.13031 19.0922 9.14455 19.0054 9.17622Z" fill="#16793B"/>
<path d="M18.0387 6.53243C17.3854 6.77047 16.8174 7.19688 16.4065 7.75775C15.9956 8.31862 15.7602 8.98876 15.7301 9.6834C15.7001 10.378 15.8767 11.066 16.2376 11.6603C16.5985 12.2545 17.1276 12.7284 17.7579 13.022C18.3882 13.3156 19.0913 13.4157 19.7785 13.3096C20.4656 13.2035 21.1059 12.8961 21.6183 12.4261C22.1307 11.9562 22.4923 11.3448 22.6572 10.6694C22.8222 9.99392 22.7831 9.28473 22.545 8.63148C22.2245 7.7565 21.5703 7.04425 20.7256 6.65079C19.8809 6.25734 18.9147 6.21478 18.0387 6.53243ZM19.9632 11.8187C19.5712 11.9614 19.1458 11.9846 18.7406 11.8854C18.3355 11.7863 17.9688 11.5692 17.687 11.2617C17.4052 10.9542 17.221 10.57 17.1575 10.1577C17.0941 9.74546 17.1543 9.32365 17.3305 8.94562C17.5068 8.56759 17.7912 8.25031 18.1478 8.03391C18.5044 7.81751 18.9171 7.71172 19.3338 7.72989C19.7506 7.74806 20.1525 7.88939 20.4889 8.136C20.8253 8.38262 21.081 8.72344 21.2237 9.11538C21.4143 9.64064 21.3891 10.22 21.1534 10.7267C20.9178 11.2334 20.491 11.6261 19.9665 11.8187H19.9632Z" fill="#16793B"/>
<path d="M13.719 11.1029L11.0764 12.0651C10.9894 12.0967 10.9094 12.1451 10.841 12.2076C10.7727 12.27 10.7173 12.3453 10.6781 12.4292C10.6388 12.5131 10.6165 12.6038 10.6124 12.6963C10.6082 12.7888 10.6223 12.8812 10.6538 12.9683C10.6854 13.0553 10.7338 13.1353 10.7963 13.2037C10.8587 13.272 10.934 13.3274 11.0179 13.3666C11.1018 13.4059 11.1925 13.4282 11.285 13.4323C11.3775 13.4365 11.4699 13.4224 11.557 13.3909L14.1996 12.4286C14.2867 12.397 14.3666 12.3487 14.435 12.2862C14.5033 12.2237 14.5587 12.1484 14.5979 12.0645C14.6372 11.9807 14.6595 11.8899 14.6637 11.7974C14.6678 11.7049 14.6537 11.6125 14.6222 11.5254C14.5906 11.4384 14.5422 11.3584 14.4798 11.2901C14.4173 11.2217 14.342 11.1664 14.2581 11.1271C14.1742 11.0879 14.0835 11.0655 13.991 11.0614C13.8985 11.0572 13.8061 11.0713 13.719 11.1029Z" fill="#16793B"/>
<path d="M26.9354 6.29269L24.2928 7.25495C24.2057 7.28651 24.1257 7.33489 24.0574 7.39735C23.989 7.45982 23.9337 7.53514 23.8944 7.619C23.8552 7.70287 23.8329 7.79364 23.8287 7.88614C23.8245 7.97863 23.8386 8.07105 23.8702 8.1581C23.9018 8.24514 23.9501 8.32512 24.0126 8.39347C24.0751 8.46181 24.1504 8.51719 24.2343 8.55643C24.3181 8.59567 24.4089 8.61801 24.5014 8.62216C24.5939 8.62632 24.6863 8.61223 24.7734 8.58067L27.416 7.61841C27.503 7.58686 27.583 7.53847 27.6513 7.476C27.7197 7.41354 27.7751 7.33823 27.8143 7.25436C27.8535 7.1705 27.8759 7.07972 27.88 6.98722C27.8842 6.89472 27.8701 6.80232 27.8385 6.71527C27.807 6.62822 27.7586 6.54823 27.6961 6.47989C27.6336 6.41154 27.5583 6.35618 27.4745 6.31694C27.3906 6.2777 27.2998 6.25536 27.2073 6.2512C27.1148 6.24704 27.0224 6.26114 26.9354 6.29269Z" fill="#16793B"/>
<path d="M18.0166 35.9646C18.4894 35.9646 18.8728 35.5813 18.8728 35.1084C18.8728 34.6355 18.4894 34.2522 18.0166 34.2522C17.5437 34.2522 17.1604 34.6355 17.1604 35.1084C17.1604 35.5813 17.5437 35.9646 18.0166 35.9646Z" fill="#16793B"/>
<path d="M35.2964 9.84449H31.9677L28.554 0.462796C28.49 0.287673 28.3591 0.145105 28.1901 0.0663936C28.021 -0.0123174 27.8277 -0.0207368 27.6525 0.042984L6.50941 7.73328C6.42261 7.76485 6.34288 7.81322 6.27479 7.87563C6.2067 7.93804 6.15158 8.01326 6.11259 8.09698C6.0736 8.18071 6.0515 8.27131 6.04755 8.36359C6.04361 8.45587 6.05789 8.54802 6.08959 8.63477L6.5315 9.83897H0.702741C0.60991 9.83882 0.51797 9.85707 0.432233 9.89266C0.346496 9.92825 0.268661 9.98048 0.203225 10.0463C0.13779 10.1122 0.086051 10.1903 0.0509981 10.2763C0.0159453 10.3622 -0.00172672 10.4543 -0.000996802 10.5471V35.294C-0.000704628 35.4802 0.0734164 35.6588 0.205122 35.7905C0.336828 35.9222 0.515376 35.9963 0.701636 35.9966H14.8361C15.0225 35.9966 15.2014 35.9225 15.3333 35.7906C15.4652 35.6588 15.5392 35.4799 15.5392 35.2934C15.5392 35.1069 15.4652 34.928 15.3333 34.7962C15.2014 34.6643 15.0225 34.5902 14.8361 34.5902H1.40648V21.5164H34.5937V34.5935H21.1642C20.9777 34.5935 20.7988 34.6676 20.6669 34.7995C20.5351 34.9314 20.461 35.1102 20.461 35.2967C20.461 35.4832 20.5351 35.6621 20.6669 35.7939C20.7988 35.9258 20.9777 35.9999 21.1642 35.9999H35.2964C35.4826 35.9996 35.6612 35.9255 35.7929 35.7938C35.9246 35.6621 35.9987 35.4835 35.999 35.2973V10.5471C35.999 10.3608 35.925 10.1821 35.7932 10.0503C35.6614 9.91852 35.4827 9.84449 35.2964 9.84449ZM10.0723 15.4667L8.58969 11.3956C9.17698 11.0347 9.64534 10.5092 9.93661 9.88449C10.2279 9.25973 10.3292 8.56318 10.2281 7.88132L24.8961 2.54087C25.2574 3.12746 25.7828 3.59528 26.4072 3.88647C27.0316 4.17765 27.7276 4.27944 28.4092 4.17924L29.9007 8.27683C29.3141 8.63846 28.8463 9.16402 28.5551 9.78858C28.264 10.4131 28.1622 11.1093 28.2623 11.7911L18.1625 15.4667H10.0723ZM29.6322 11.2917C29.63 10.9774 29.6978 10.6665 29.8306 10.3816C29.9634 10.0967 30.1579 9.84495 30.4 9.64453L30.8419 10.852L29.6322 11.2917ZM27.9121 2.81264C27.5973 2.8141 27.2862 2.74545 27.0013 2.61169C26.7164 2.47792 26.4648 2.2824 26.2649 2.0393L27.4724 1.59739L27.9121 2.81264ZM8.86036 8.37957C8.86213 8.69453 8.79364 9.00593 8.65986 9.29107C8.52608 9.57622 8.33038 9.82793 8.08702 10.0279L7.64511 8.81927L8.86036 8.37957ZM1.40648 20.1067V11.2509H7.0408L8.57533 15.4667H6.75025C6.56375 15.4667 6.38489 15.5407 6.25302 15.6726C6.12115 15.8045 6.04706 15.9834 6.04706 16.1698C6.04706 16.3563 6.12115 16.5352 6.25302 16.6671C6.38489 16.799 6.56375 16.873 6.75025 16.873H29.25C29.4365 16.873 29.6153 16.799 29.7472 16.6671C29.8791 16.5352 29.9532 16.3563 29.9532 16.1698C29.9532 15.9834 29.8791 15.8045 29.7472 15.6726C29.6153 15.5407 29.4365 15.4667 29.25 15.4667H22.2734L31.981 11.9314C32.1205 11.8808 32.2404 11.7872 32.3234 11.6641C32.4063 11.541 32.4481 11.3948 32.4428 11.2464H34.5937V20.1067H1.40648Z" fill="#16793B"/>
</g>
</g>
</g>
<defs>
<clipPath id="clip0_9_1745">
<rect width="36" height="36" fill="white"/>
</clipPath>
<clipPath id="clip1_9_1745">
<rect width="36" height="36" fill="white"/>
</clipPath>
<clipPath id="clip2_9_1745">
<rect width="36" height="36" fill="white"/>
</clipPath>
</defs>
</svg>
