<svg width="13" height="12" viewBox="0 0 13 12" fill="none" xmlns="http://www.w3.org/2000/svg">
<path d="M6.22881 9.75C3.5335 9.75 1.35381 7.57031 1.35381 4.875C1.35381 2.20312 3.5335 0 6.22881 0C8.90068 0 11.1038 2.20312 11.1038 4.875C11.1038 7.57031 8.90068 9.75 6.22881 9.75ZM5.68975 2.29688C4.93975 2.32031 4.30693 2.95312 4.30693 3.75C4.30693 4.40625 4.72881 4.99219 5.33818 5.15625L6.79131 5.60156C6.95537 5.64844 7.07256 5.8125 7.07256 6.02344C7.07256 6.25781 6.9085 6.44531 6.69756 6.44531H5.7835C5.64287 6.44531 5.50225 6.39844 5.36162 6.32812C5.26787 6.25781 5.12725 6.25781 5.0335 6.35156L4.6585 6.70312C4.54131 6.82031 4.56475 7.00781 4.68193 7.10156C4.98662 7.33594 5.33818 7.45312 5.68975 7.47656V7.875C5.68975 8.08594 5.87725 8.25 6.08818 8.25H6.346C6.55693 8.25 6.74443 8.08594 6.74443 7.875V7.47656C7.49443 7.45312 8.12725 6.82031 8.12725 6.02344C8.12725 5.36719 7.70537 4.78125 7.096 4.61719L5.64287 4.17188C5.47881 4.125 5.36162 3.9375 5.36162 3.75C5.36162 3.51562 5.52568 3.32812 5.73662 3.32812H6.65068C6.79131 3.32812 6.93193 3.375 7.07256 3.44531C7.16631 3.51562 7.30693 3.51562 7.40068 3.42188L7.77568 3.07031C7.89287 2.95312 7.86943 2.76562 7.75225 2.64844C7.44756 2.4375 7.096 2.32031 6.74443 2.29688V1.89844C6.74443 1.6875 6.55693 1.5 6.346 1.5H6.08818C5.87725 1.5 5.68975 1.6875 5.68975 1.89844V2.29688ZM11.4788 8.25C11.8772 8.25 12.2288 8.60156 12.2288 9V11.25C12.2288 11.6719 11.8772 12 11.4788 12H0.978808C0.556933 12 0.228808 11.6719 0.228808 11.25V9C0.228808 8.60156 0.556933 8.25 0.978808 8.25H1.72881C2.19756 8.85938 2.7835 9.375 3.43975 9.75H1.93975C1.82256 9.75 1.72881 9.84375 1.72881 9.9375V10.3125C1.72881 10.4297 1.82256 10.5 1.93975 10.5H10.4944C10.6116 10.5 10.7054 10.4297 10.7054 10.3125V9.9375C10.7054 9.84375 10.6116 9.75 10.4944 9.75H8.99443C9.65068 9.375 10.2366 8.85938 10.7054 8.25H11.4788Z" fill="white"/>
</svg>
