<svg width="36" height="36" viewBox="0 0 36 36" fill="none" xmlns="http://www.w3.org/2000/svg">
<g clip-path="url(#clip0_9_1766)">
<g clip-path="url(#clip1_9_1766)">
<path d="M33.0299 10.2275C31.034 10.2652 23.6466 10.8419 22.8438 17.2613C22.842 17.3125 22.8504 17.3635 22.8684 17.4114C22.8865 17.4593 22.9139 17.5031 22.9491 17.5403C22.9842 17.5775 23.0264 17.6074 23.0731 17.6281C23.1199 17.6489 23.1704 17.6602 23.2215 17.6613C31.3654 18.4129 33.1265 12.3277 33.4559 10.6497C33.4607 10.5927 33.4529 10.5354 33.4331 10.4817C33.4133 10.4281 33.382 10.3794 33.3414 10.3392C33.3008 10.2989 33.2518 10.2681 33.198 10.2488C33.1442 10.2295 33.0868 10.2222 33.0299 10.2275Z" fill="#C2D55D"/>
<path d="M9.00314 10.2275C10.999 10.2652 18.3864 10.8419 19.1892 17.2613C19.191 17.3125 19.1826 17.3635 19.1646 17.4114C19.1465 17.4593 19.1191 17.5031 19.084 17.5403C19.0488 17.5775 19.0066 17.6074 18.9599 17.6281C18.9131 17.6489 18.8626 17.6602 18.8115 17.6613C10.6676 18.4129 8.90653 12.3277 8.5771 10.6497C8.57234 10.5927 8.58013 10.5354 8.59991 10.4817C8.61969 10.4281 8.65099 10.3794 8.6916 10.3392C8.73222 10.2989 8.78116 10.2681 8.83498 10.2488C8.8888 10.2295 8.9462 10.2222 9.00314 10.2275Z" fill="#C2D55D"/>
<path d="M21.2237 0.660686C21.1985 0.620154 21.1633 0.586722 21.1216 0.563542C21.0798 0.540362 21.0329 0.528198 20.9851 0.528198C20.9374 0.528198 20.8904 0.540362 20.8486 0.563542C20.8069 0.586722 20.7718 0.620154 20.7465 0.660686C19.7032 2.30298 15.8196 9.19964 20.9764 13.6618H20.9938C26.1477 9.19964 22.2661 2.30491 21.2237 0.660686Z" fill="#C2D55D"/>
<path d="M13.0934 23.9716L9.86581 26.5452L20.9851 31.8691L32.1044 26.5452L28.8768 23.9716C26.6319 22.1907 23.8506 21.2214 20.9851 21.2214C18.1196 21.2214 15.3383 22.1907 13.0934 23.9716Z" fill="#00A651"/>
<path d="M24.5354 25.7501L27.7629 28.3237L28.0093 28.5024L32.1054 26.5413L28.8778 23.9677C26.7946 22.3158 24.2456 21.3591 21.59 21.2325C18.9344 21.1058 16.3059 21.8155 14.0749 23.2616C15.8944 22.885 17.7743 22.9128 19.5818 23.3428C21.3894 23.7728 23.0804 24.5946 24.5354 25.7501Z" fill="#66B947"/>
<path d="M32.1218 25.5521L28.3281 27.5412C27.3364 28.0644 26.2394 28.357 25.1189 28.3971L25.1682 27.5875C25.1334 27.1235 24.9443 26.6844 24.6311 26.3402C24.3179 25.9961 23.8986 25.7665 23.4399 25.6883L19.1999 25.1734C18.3578 25.0213 17.5635 24.6728 16.8813 24.1561C15.8601 23.583 14.782 23.1178 13.6644 22.7679C12.9336 22.5552 12.1676 22.4914 11.4117 22.5803C10.6558 22.6693 9.92543 22.9091 9.264 23.2857L3.28799 26.637L7.97046 34.1045L10.5247 31.8391C10.7257 31.6605 10.9698 31.5375 11.2329 31.4821C11.496 31.4267 11.769 31.4409 12.025 31.5233L16.3017 32.8979C16.7704 33.083 17.2766 33.1529 17.7778 33.1018L26.2926 32.2323C26.8266 32.1765 27.3379 31.9871 27.7794 31.6817L33.6569 27.6388C33.8866 27.4182 34.0326 27.1247 34.0699 26.8084C34.1073 26.4921 34.0337 26.1727 33.8617 25.9047C33.7744 25.7629 33.6589 25.6407 33.5225 25.5454C33.386 25.4501 33.2314 25.3839 33.0682 25.3509C32.9051 25.3178 32.7369 25.3186 32.5741 25.3532C32.4113 25.3878 32.2574 25.4555 32.1218 25.5521Z" fill="white"/>
<path d="M3.30824 26.6302L3.28699 26.6428L3.33143 26.7133L3.30824 26.6302Z" fill="#FFCBBE"/>
<path d="M33.8587 25.9095C33.7715 25.7679 33.6562 25.6456 33.5198 25.5503C33.3834 25.4551 33.229 25.3888 33.066 25.3557C32.9029 25.3225 32.7349 25.3232 32.5721 25.3576C32.4094 25.3921 32.2554 25.4596 32.1198 25.5559L29.4303 26.9703C29.4303 26.9703 29.1637 27.5731 28.8681 28.2136C28.6538 28.7008 28.3377 29.1364 27.9409 29.4912C27.5441 29.846 27.076 30.1116 26.5679 30.2703L17.7411 31.1755C17.2215 31.2287 16.6968 31.1564 16.2109 30.9649L11.7776 29.54C11.5123 29.4547 11.2293 29.44 10.9565 29.4975C10.6838 29.5549 10.4307 29.6824 10.2223 29.8674L7.03432 32.6342L7.96269 34.1142L10.5169 31.8488C10.7179 31.6702 10.962 31.5471 11.2252 31.4917C11.4883 31.4363 11.7613 31.4505 12.0172 31.5329L16.2939 32.9076C16.7627 33.0923 17.2689 33.1618 17.7701 33.1105L26.2849 32.241C26.8188 32.1852 27.3301 31.9958 27.7716 31.6904L33.6491 27.6475C33.8805 27.4272 34.028 27.1333 34.0663 26.8162C34.1046 26.499 34.0312 26.1784 33.8587 25.9095Z" fill="#EBEBEB"/>
<path d="M9.11327 34.632L7.88445 35.3411C7.77249 35.4058 7.64889 35.4477 7.52072 35.4646C7.39255 35.4815 7.26232 35.4729 7.13744 35.4395C7.01257 35.406 6.89551 35.3483 6.79295 35.2696C6.69039 35.1909 6.60434 35.0927 6.5397 34.9808L2.05817 27.2185C1.99353 27.1066 1.95158 26.983 1.93471 26.8548C1.91783 26.7267 1.92637 26.5964 1.95983 26.4715C1.99329 26.3467 2.05102 26.2296 2.12972 26.127C2.20842 26.0245 2.30655 25.9384 2.41851 25.8738L3.64733 25.1647C3.75929 25.1001 3.88288 25.0581 4.01105 25.0413C4.13922 25.0244 4.26946 25.0329 4.39434 25.0664C4.51921 25.0998 4.63627 25.1576 4.73883 25.2363C4.84139 25.315 4.92744 25.4131 4.99208 25.5251L9.4736 33.2873C9.53824 33.3993 9.5802 33.5228 9.59707 33.651C9.61395 33.7792 9.60541 33.9094 9.57195 34.0343C9.53849 34.1592 9.48076 34.2762 9.40206 34.3788C9.32336 34.4814 9.22522 34.5674 9.11327 34.632Z" fill="#1D8F47"/>
<path d="M34.3011 25.6187C34.1773 25.4197 34.0146 25.2477 33.8227 25.1131C33.6309 24.9786 33.4137 24.8842 33.1845 24.8356C32.9552 24.7871 32.7185 24.7854 32.4885 24.8306C32.2585 24.8759 32.0401 24.9672 31.8463 25.099L31.4184 25.3241L29.2042 23.5581C27.0355 21.834 24.3785 20.8375 21.611 20.7102C21.8001 19.7353 22.2852 18.8424 23.0002 18.1531C23.5178 18.2232 24.0399 18.2555 24.5623 18.2497C26.2133 18.2855 27.8489 17.9247 29.3317 17.1976C29.4561 17.1336 29.5499 17.0227 29.5926 16.8895C29.6353 16.7562 29.6232 16.6115 29.5592 16.4871C29.4951 16.3627 29.3843 16.2689 29.251 16.2262C29.1178 16.1835 28.973 16.1955 28.8486 16.2596C27.3709 16.9705 25.7352 17.2896 24.0986 17.186C26.8063 14.9818 29.7006 13.0172 32.7486 11.3144C32.3661 12.6569 31.6633 13.8865 30.7006 14.8975C30.6055 14.9978 30.5537 15.1315 30.5562 15.2697C30.5587 15.4079 30.6154 15.5396 30.714 15.6364C30.8127 15.7333 30.9453 15.7875 31.0836 15.7876C31.2218 15.7876 31.3545 15.7333 31.4531 15.6365C32.7371 14.2775 33.6109 12.5833 33.9736 10.7492C33.9937 10.6148 33.9836 10.4777 33.9442 10.3476C33.9048 10.2176 33.8369 10.098 33.7456 9.99737C33.6542 9.89678 33.5416 9.81775 33.416 9.766C33.2904 9.71425 33.1548 9.69107 33.0191 9.69815C27.8488 9.79476 22.9721 12.007 22.3201 17.1938C22.3153 17.2445 22.3153 17.2956 22.3201 17.3464C22.0225 17.6351 21.753 17.9515 21.5153 18.2912V13.9043C22.5922 12.9274 23.3868 11.6792 23.8161 10.29C24.2454 8.9009 24.2936 7.42195 23.9556 6.00782C23.5412 4.00763 22.7664 2.09952 21.6689 0.376696C21.5961 0.261153 21.4951 0.165951 21.3755 0.099972C21.2559 0.0339935 21.1216 -0.000610352 20.985 -0.000610352C20.8484 -0.000610352 20.714 0.0339935 20.5944 0.099972C20.4748 0.165951 20.3739 0.261153 20.301 0.376696C19.2038 2.09989 18.4293 4.00833 18.0153 6.00879C17.6773 7.4226 17.7253 8.90125 18.1542 10.2902C18.5831 11.6791 19.3773 12.9273 20.4536 13.9043V18.2033C20.2313 17.8975 19.9831 17.6115 19.7117 17.3483C19.7164 17.2976 19.7164 17.2465 19.7117 17.1957C19.0645 12.0176 14.1811 9.79862 9.01267 9.70008C8.87697 9.69301 8.7414 9.71618 8.61576 9.76793C8.49012 9.81968 8.37756 9.89871 8.28621 9.9993C8.19487 10.0999 8.12702 10.2195 8.08759 10.3496C8.04815 10.4796 8.03812 10.6168 8.0582 10.7511C8.88032 14.9419 12.0499 18.2535 17.4473 18.2535C17.9767 18.2593 18.5059 18.227 19.0306 18.1569C19.7461 18.845 20.2319 19.7369 20.4218 20.7112C18.2965 20.7976 16.2238 21.3975 14.381 22.4597C14.1685 22.3844 13.9753 22.3196 13.814 22.2713C13.0152 22.0397 12.1781 21.9702 11.3521 22.0669C10.526 22.1637 9.72764 22.4247 9.00397 22.8346L5.21511 24.9599C4.98045 24.7201 4.67248 24.5654 4.34 24.5205C4.00752 24.4755 3.66954 24.5428 3.37961 24.7116L2.15078 25.4207C1.80385 25.6215 1.55074 25.9517 1.44696 26.3389C1.34319 26.7261 1.39723 27.1387 1.59724 27.4861L6.07973 35.2493C6.17889 35.4214 6.31101 35.5722 6.46852 35.6932C6.62603 35.8142 6.80584 35.9029 6.99767 35.9543C7.18951 36.0057 7.38959 36.0188 7.58649 35.9928C7.78338 35.9668 7.97322 35.9023 8.14515 35.8029L9.37397 35.0938C9.71427 34.8963 9.96422 34.5739 10.0708 34.1952C10.1774 33.8164 10.1322 33.4111 9.94491 33.0651L10.8694 32.2449C11.0022 32.1278 11.163 32.0471 11.3362 32.0107C11.5094 31.9743 11.6891 31.9834 11.8577 32.0372L16.119 33.407C16.6616 33.6172 17.2461 33.6963 17.825 33.6379L26.3388 32.7685C26.9607 32.7032 27.5562 32.4829 28.071 32.128C34.331 27.8194 33.9552 28.087 34.0103 28.0358C34.3288 27.7301 34.5317 27.3236 34.5845 26.8853C34.6373 26.447 34.5368 26.0039 34.3001 25.6313L34.3011 25.6187ZM31.4029 10.87C28.6604 12.4539 26.0463 14.2505 23.5846 16.2432C24.6898 12.3171 28.7926 11.1859 31.4029 10.87ZM18.4481 16.2451C15.9883 14.2536 13.3761 12.458 10.6356 10.8748C14.1511 11.3115 17.4869 12.8175 18.4481 16.2451ZM9.28026 11.3182C12.3291 13.0216 15.224 14.9868 17.9322 17.1918C11.8635 17.4034 9.89467 13.4242 9.28026 11.3182ZM22.9132 6.19814C23.1697 7.26816 23.1765 8.38283 22.9333 9.45593C22.6901 10.529 22.2032 11.5318 21.5105 12.3867V2.22959C22.1657 3.47879 22.6381 4.81464 22.9132 6.19814ZM19.0548 6.19814C19.3298 4.81535 19.8019 3.4792 20.4565 2.23055V12.3867C19.7641 11.5318 19.2775 10.5292 19.0345 9.45627C18.7914 8.38335 18.7984 7.26794 19.0548 6.19814ZM28.5453 24.3831L30.3982 25.8602L28.0797 27.0784C27.3323 27.4738 26.5185 27.7283 25.679 27.8291L25.6916 27.6233C25.6937 27.5963 25.6937 27.5691 25.6916 27.5421C25.6464 26.9605 25.4076 26.4107 25.0132 25.9808C24.6188 25.5508 24.0917 25.2655 23.516 25.1705H23.5015L19.2712 24.6556C17.9303 24.4537 17.7477 23.8663 15.6717 22.9659C17.7339 21.9687 20.0354 21.5727 22.3123 21.8234C24.5892 22.074 26.7494 22.9612 28.5453 24.3831ZM33.3166 27.2301L27.4827 31.2469C27.1138 31.5016 26.687 31.6597 26.2413 31.7068L17.7274 32.5762C17.3004 32.6161 16.87 32.5542 16.4716 32.3956L12.1948 31.0209C11.8516 30.9116 11.4859 30.8931 11.1334 30.9672C10.7809 31.0414 10.4536 31.2057 10.1835 31.444L9.42227 32.1203L7.71622 29.1651C7.68289 29.1027 7.63734 29.0476 7.58229 29.0032C7.52725 28.9588 7.46382 28.9259 7.39579 28.9064C7.32777 28.887 7.25653 28.8815 7.18631 28.8901C7.1161 28.8988 7.04835 28.9215 6.98709 28.9569C6.92584 28.9923 6.87232 29.0397 6.82974 29.0962C6.78716 29.1527 6.75638 29.2171 6.73923 29.2858C6.72209 29.3544 6.71892 29.4258 6.72993 29.4957C6.74093 29.5656 6.76589 29.6325 6.8033 29.6926L9.02523 33.5462C9.08553 33.6511 9.1018 33.7757 9.07048 33.8927C9.03916 34.0096 8.9628 34.1094 8.8581 34.1702L7.62928 34.8793C7.52435 34.9399 7.39967 34.9563 7.28264 34.925C7.16561 34.8936 7.06582 34.8171 7.00521 34.7122L2.51499 26.9548C2.45468 26.8498 2.43841 26.7252 2.46973 26.6082C2.50105 26.4913 2.57741 26.3915 2.68212 26.3307L3.91093 25.6216C4.01586 25.5611 4.14055 25.5446 4.25757 25.576C4.3746 25.6073 4.47439 25.6838 4.53501 25.7887L5.55323 27.5566C5.58656 27.619 5.63211 27.6741 5.68715 27.7185C5.7422 27.763 5.80563 27.7959 5.87365 27.8153C5.94168 27.8347 6.01292 27.8403 6.08313 27.8316C6.15335 27.8229 6.2211 27.8002 6.28236 27.7648C6.34361 27.7294 6.39712 27.6821 6.4397 27.6256C6.48229 27.5691 6.51307 27.5046 6.53021 27.436C6.54736 27.3673 6.55053 27.2959 6.53952 27.226C6.52851 27.1562 6.50356 27.0892 6.46615 27.0292L5.78218 25.8448L9.51598 23.7513C10.1161 23.4105 10.7783 23.1932 11.4636 23.112C12.149 23.0309 12.8436 23.0877 13.5067 23.2789C16.7807 24.2595 17.1778 25.411 19.1166 25.7008H19.1311L23.3634 26.2148C23.698 26.275 24.0035 26.4435 24.2331 26.6943C24.4626 26.9451 24.6034 27.2644 24.6338 27.603L24.6154 27.9044L19.2354 28.256C19.0984 28.2643 18.97 28.3257 18.8775 28.4272C18.785 28.5287 18.7357 28.6622 18.7401 28.7995C18.7445 28.9367 18.8022 29.0668 18.9011 29.1621C18.9999 29.2575 19.132 29.3105 19.2693 29.31H19.304C24.998 28.7961 26.2596 29.2269 28.5685 28.0126C32.595 25.894 32.368 26.0196 32.4211 25.9839C32.4987 25.9289 32.5868 25.8906 32.6799 25.8713C32.773 25.8521 32.8691 25.8523 32.9621 25.872C33.0551 25.8917 33.143 25.9304 33.2204 25.9857C33.2977 26.0411 33.3627 26.1118 33.4113 26.1935C33.5135 26.3525 33.5595 26.5412 33.542 26.7294C33.5245 26.9176 33.4445 27.0946 33.3147 27.232L33.3166 27.2301Z" fill="#16793B"/>
</g>
</g>
<defs>
<clipPath id="clip0_9_1766">
<rect width="36" height="36" fill="white"/>
</clipPath>
<clipPath id="clip1_9_1766">
<rect width="33.2013" height="36" fill="white" transform="translate(1.39932)"/>
</clipPath>
</defs>
</svg>
