<svg width="36" height="36" viewBox="0 0 36 36" fill="none" xmlns="http://www.w3.org/2000/svg">
<g clip-path="url(#clip0_9_1725)">
<g clip-path="url(#clip1_9_1725)">
<g clip-path="url(#clip2_9_1725)">
<path d="M14.4114 4.50298H6.39345C5.88955 4.50298 5.40628 4.3028 5.04996 3.94648C4.69364 3.59017 4.49347 3.1069 4.49347 2.60299C4.49347 2.09908 4.69364 1.61581 5.04996 1.2595C5.40628 0.903179 5.88955 0.703003 6.39345 0.703003H24.1346C26.0058 0.70321 27.8404 1.22105 29.4355 2.19924L35.2923 5.79022V14.9066H30.1611C28.9271 14.9066 27.7077 14.6386 26.5875 14.1211C25.4672 13.6036 24.4726 12.849 23.6726 11.9094L21.4972 9.35388C21.2153 9.02289 20.8649 8.75707 20.4702 8.57479C20.0755 8.39252 19.646 8.29815 19.2112 8.2982H14.4114C13.9075 8.2982 13.4242 8.09802 13.0679 7.74171C12.7116 7.38539 12.5114 6.90212 12.5114 6.39821C12.5114 5.89431 12.7116 5.41104 13.0679 5.05472C13.4242 4.6984 13.9075 4.49823 14.4114 4.49823H22.0113C22.6437 4.49825 23.2625 4.68182 23.7926 5.02666L26.6153 6.86252L26.6248 6.90883" fill="white"/>
<path d="M21.5874 31.4995H29.6018C30.1057 31.4995 30.589 31.6996 30.9453 32.056C31.3016 32.4123 31.5018 32.8955 31.5018 33.3995C31.5018 33.9034 31.3016 34.3866 30.9453 34.7429C30.589 35.0992 30.1057 35.2994 29.6018 35.2994H11.8583C9.98712 35.2991 8.15249 34.7813 6.55733 33.8032L0.700623 30.2122V21.0958H5.83771C7.07175 21.0958 8.29107 21.3638 9.41136 21.8813C10.5316 22.3988 11.5262 23.1535 12.3262 24.0931L14.5017 26.6486C14.7835 26.9796 15.1339 27.2454 15.5286 27.4276C15.9233 27.6099 16.3528 27.7043 16.7876 27.7042H21.5874C21.8369 27.7042 22.084 27.7534 22.3145 27.8489C22.545 27.9443 22.7545 28.0843 22.9309 28.2607C23.1073 28.4371 23.2473 28.6466 23.3428 28.8771C23.4383 29.1076 23.4874 29.3547 23.4874 29.6042C23.4874 30.1081 23.2872 30.5914 22.9309 30.9477C22.5746 31.304 22.0913 31.5042 21.5874 31.5042H13.9958C13.3634 31.5042 12.7446 31.3206 12.2145 30.9758L9.39188 29.1399L9.38238 29.0936" fill="white"/>
<path d="M20.3085 13.3177C19.873 13.3189 19.4426 13.4114 19.0452 13.5894C18.6477 13.7674 18.2921 14.0268 18.0012 14.3509C17.7103 14.0268 17.3547 13.7674 16.9572 13.5894C16.5598 13.4114 16.1294 13.3189 15.6939 13.3177C15.268 13.3256 14.8477 13.4174 14.4573 13.5878C14.0668 13.7582 13.7137 14.0039 13.4183 14.3108C13.1228 14.6177 12.8908 14.9799 12.7354 15.3765C12.58 15.7732 12.5043 16.1966 12.5126 16.6225C12.5126 19.6981 17.9964 22.6989 17.9964 22.6989C17.9964 22.6989 23.4803 19.6981 23.4803 16.6225C23.4971 15.7639 23.1726 14.9337 22.578 14.3141C21.9833 13.6945 21.1671 13.3361 20.3085 13.3177Z" fill="#C2D55D"/>
<path d="M29.6006 30.7964H23.9007C24.1071 30.3999 24.2078 29.9568 24.1931 29.51C24.1783 29.0632 24.0486 28.6277 23.8164 28.2457C23.5842 27.8637 23.2574 27.548 22.8675 27.3291C22.4777 27.1103 22.038 26.9957 21.591 26.9964H16.7876C16.4546 26.9966 16.1256 26.9244 15.8234 26.7848C15.5211 26.6451 15.2529 26.4414 15.0372 26.1877L12.8617 23.6322C11.9965 22.6141 10.92 21.7965 9.70711 21.236C8.49419 20.6756 7.17385 20.3859 5.83772 20.3868H0.705375C0.51893 20.3868 0.34012 20.4609 0.208283 20.5927C0.0764457 20.7246 0.00238037 20.9034 0.00238037 21.0898V30.2062C0.00338269 30.3255 0.0347597 30.4427 0.0935545 30.5466C0.152349 30.6505 0.236625 30.7376 0.338441 30.7999L6.19159 34.4004C7.8974 35.4467 9.85956 36.0003 11.8607 36H29.6018C30.2918 36 30.9536 35.7259 31.4415 35.2379C31.9295 34.75 32.2036 34.0882 32.2036 33.3982C32.2036 32.7082 31.9295 32.0464 31.4415 31.5584C30.9536 31.0705 30.2907 30.7964 29.6006 30.7964ZM30.4461 34.2401C30.3354 34.3515 30.2036 34.4398 30.0585 34.5C29.9133 34.5601 29.7577 34.5909 29.6006 34.5904H11.8607C10.1191 34.5908 8.41134 34.1091 6.92665 33.1987L1.406 29.8155V21.7964H5.83772C6.97007 21.7956 8.08904 22.0411 9.11699 22.516C10.1449 22.9909 11.0572 23.6838 11.7906 24.5466L13.9661 27.1021C14.3134 27.5116 14.7457 27.8405 15.2329 28.066C15.7202 28.2916 16.2507 28.4084 16.7876 28.4083H21.5874C21.8979 28.4181 22.1924 28.5483 22.4085 28.7714C22.6247 28.9945 22.7455 29.2929 22.7455 29.6035C22.7455 29.9142 22.6247 30.2126 22.4085 30.4357C22.1924 30.6588 21.8979 30.789 21.5874 30.7987H13.9875C13.4913 30.799 13.0057 30.655 12.5898 30.3843L9.91794 28.647C9.81804 28.5248 9.67989 28.4397 9.52575 28.4055C9.3716 28.3713 9.21044 28.39 9.06822 28.4586C8.926 28.5272 8.811 28.6416 8.74176 28.7835C8.67251 28.9254 8.65305 29.0865 8.68651 29.2408L8.69601 29.2871C8.73499 29.4687 8.84429 29.6275 9.00001 29.7288L11.8262 31.5623C12.4702 31.982 13.2224 32.2052 13.991 32.2048H29.6006C29.8371 32.2048 30.0683 32.2749 30.2649 32.4063C30.4615 32.5377 30.6148 32.7245 30.7053 32.943C30.7958 33.1614 30.8194 33.4019 30.7733 33.6338C30.7272 33.8658 30.6133 34.0788 30.4461 34.246V34.2401Z" fill="#16793B"/>
<path d="M26.6129 6.16187C26.4499 6.16197 26.292 6.21858 26.1662 6.32204C26.0403 6.42551 25.9542 6.56943 25.9225 6.72927C25.8909 6.88912 25.9157 7.05499 25.9926 7.19862C26.0696 7.34225 26.194 7.45474 26.3446 7.51693C26.4952 7.57911 26.6627 7.58715 26.8186 7.53965C26.9745 7.49215 27.109 7.39207 27.1993 7.25646C27.2897 7.12085 27.3302 6.9581 27.314 6.79596C27.2978 6.63383 27.2258 6.48233 27.1104 6.3673C26.9778 6.23639 26.7992 6.16265 26.6129 6.16187Z" fill="#16793B"/>
<path d="M35.6639 5.19171L29.8072 1.60074C28.1015 0.554062 26.1394 2.08494e-05 24.1382 0L6.39821 0C5.70817 0 5.04639 0.274117 4.55846 0.762048C4.07053 1.24998 3.79642 1.91176 3.79642 2.60179C3.79642 3.29183 4.07053 3.95361 4.55846 4.44154C5.04639 4.92947 5.70817 5.20359 6.39821 5.20359H12.1041C11.8976 5.60011 11.7969 6.04317 11.8117 6.48999C11.8264 6.9368 11.9562 7.37225 12.1884 7.75428C12.4206 8.1363 12.7474 8.45198 13.1372 8.67082C13.527 8.88966 13.9667 9.00427 14.4138 9.00356H19.2136C19.5466 9.00335 19.8756 9.07556 20.1778 9.21521C20.4801 9.35485 20.7483 9.55857 20.964 9.81224L23.1395 12.3677C24.0047 13.3859 25.0812 14.2035 26.2941 14.7639C27.507 15.3244 28.8273 15.6141 30.1635 15.6131H35.2958C35.4823 15.6131 35.6611 15.5391 35.7929 15.4072C35.9248 15.2754 35.9988 15.0966 35.9988 14.9101V5.7914C35.9989 5.67114 35.9682 5.55287 35.9096 5.44787C35.851 5.34288 35.7664 5.25468 35.6639 5.19171ZM24.2082 11.4534L22.0327 8.89788C21.6854 8.48842 21.2531 8.15949 20.7659 7.93392C20.2787 7.70835 19.7482 7.59155 19.2112 7.59164H14.4114C14.2513 7.59668 14.0918 7.5695 13.9423 7.51171C13.7929 7.45392 13.6566 7.36669 13.5416 7.2552C13.4265 7.14372 13.3351 7.01025 13.2726 6.86273C13.2101 6.7152 13.1779 6.55663 13.1779 6.39642C13.1779 6.23622 13.2101 6.07764 13.2726 5.93012C13.3351 5.7826 13.4265 5.64913 13.5416 5.53765C13.6566 5.42616 13.7929 5.33893 13.9423 5.28114C14.0918 5.22335 14.2513 5.19617 14.4114 5.20121H22.0114C22.5076 5.20086 22.9932 5.34485 23.409 5.61565L24.1761 6.1144C24.2536 6.16477 24.3402 6.19939 24.431 6.2163C24.5218 6.2332 24.615 6.23206 24.7054 6.21293C24.7958 6.19379 24.8815 6.15705 24.9576 6.10479C25.0338 6.05254 25.0989 5.98579 25.1493 5.90837C25.1997 5.83094 25.2343 5.74435 25.2512 5.65354C25.2681 5.56273 25.267 5.46949 25.2478 5.37912C25.2287 5.28876 25.192 5.20304 25.1397 5.12688C25.0874 5.05071 25.0207 4.98559 24.9433 4.93522L24.1761 4.43647C23.5309 4.01843 22.7778 3.79727 22.009 3.79997H6.39821C6.08106 3.79997 5.77691 3.67399 5.55265 3.44973C5.32839 3.22547 5.20241 2.92132 5.20241 2.60417C5.20241 2.28702 5.32839 1.98286 5.55265 1.75861C5.77691 1.53435 6.08106 1.40837 6.39821 1.40837H24.1393C25.8809 1.40804 27.5886 1.88974 29.0734 2.80011L34.594 6.18564V14.2048H30.1611C29.0287 14.2055 27.9096 13.9597 26.8817 13.4846C25.8537 13.0095 24.9415 12.3164 24.2082 11.4534Z" fill="#16793B"/>
<path d="M14.8092 21.3559C15.7013 22.0898 16.6548 22.7457 17.6592 23.3164C17.7626 23.373 17.8786 23.4026 17.9965 23.4026C18.1143 23.4026 18.2303 23.373 18.3337 23.3164C19.338 22.7457 20.2915 22.0897 21.1837 21.3559C23.1727 19.71 24.1809 18.1176 24.1809 16.6225C24.1965 15.577 23.7968 14.568 23.0696 13.8167C22.3423 13.0654 21.3468 12.6332 20.3014 12.6147C19.4668 12.6177 18.6563 12.8943 17.9941 13.4021C17.3318 12.8943 16.5213 12.6177 15.6868 12.6147C14.6417 12.6338 13.6469 13.0663 12.9201 13.8175C12.1934 14.5688 11.794 15.5774 11.8096 16.6225C11.8096 18.1176 12.8202 19.71 14.8092 21.3559ZM15.6915 14.0207C16.0292 14.0212 16.3631 14.0931 16.6711 14.2317C16.979 14.3702 17.2543 14.5723 17.4787 14.8247C17.5446 14.8971 17.6249 14.955 17.7145 14.9946C17.804 15.0343 17.9009 15.0547 17.9988 15.0547C18.0968 15.0547 18.1936 15.0343 18.2832 14.9946C18.3727 14.955 18.453 14.8971 18.5189 14.8247C18.7434 14.5723 19.0186 14.3702 19.3266 14.2317C19.6346 14.0931 19.9684 14.0212 20.3061 14.0207C20.9786 14.0388 21.6165 14.3226 22.0801 14.8101C22.5437 15.2975 22.7953 15.9488 22.7797 16.6214C22.7797 18.6401 19.5924 20.945 17.9976 21.8891C16.4028 20.9474 13.2168 18.6472 13.2168 16.6214C13.2027 15.9496 13.4552 15.2997 13.9189 14.8135C14.3826 14.3273 15.0199 14.0444 15.6915 14.0267V14.0207Z" fill="#16793B"/>
<path d="M20.0472 15.9587C20.1719 16.0974 20.3467 16.1809 20.5329 16.1908C20.7192 16.2008 20.9018 16.1363 21.0405 16.0115C21.1793 15.8868 21.2628 15.7121 21.2727 15.5258C21.2826 15.3395 21.2181 15.1569 21.0934 15.0182L21.053 14.9755C20.9896 14.9083 20.9135 14.8543 20.8292 14.8166C20.7448 14.7789 20.6539 14.7581 20.5615 14.7555C20.4692 14.7529 20.3772 14.7686 20.2909 14.8015C20.2046 14.8345 20.1256 14.8841 20.0585 14.9475C19.9914 15.011 19.9374 15.0871 19.8997 15.1714C19.8619 15.2557 19.8412 15.3467 19.8386 15.439C19.836 15.5314 19.8516 15.6233 19.8845 15.7097C19.9175 15.796 19.9671 15.8749 20.0306 15.9421L20.0472 15.9587Z" fill="#16793B"/>
<path d="M18.0012 20.8215C18.1191 20.8215 18.2351 20.7917 18.3384 20.7349C19.5466 20.0785 20.5876 19.1529 21.3808 18.0298C21.4263 17.9494 21.4554 17.8608 21.4667 17.7691C21.4779 17.6775 21.471 17.5845 21.4463 17.4955C21.4216 17.4065 21.3796 17.3233 21.3227 17.2505C21.2658 17.1777 21.1952 17.1169 21.1148 17.0714C21.0344 17.026 20.9458 16.9968 20.8542 16.9856C20.7625 16.9743 20.6695 16.9813 20.5806 17.006C20.4916 17.0307 20.4083 17.0727 20.3356 17.1295C20.2628 17.1864 20.202 17.257 20.1565 17.3374C19.4968 18.2353 18.6448 18.9746 17.6628 19.5011C17.5259 19.5761 17.418 19.6946 17.3559 19.8378C17.2938 19.9811 17.2812 20.1408 17.32 20.292C17.3588 20.4432 17.4468 20.5772 17.5701 20.6729C17.6935 20.7685 17.8451 20.8204 18.0012 20.8203V20.8215Z" fill="#16793B"/>
</g>
</g>
</g>
<defs>
<clipPath id="clip0_9_1725">
<rect width="36" height="36" fill="white"/>
</clipPath>
<clipPath id="clip1_9_1725">
<rect width="36" height="36" fill="white"/>
</clipPath>
<clipPath id="clip2_9_1725">
<rect width="36" height="36" fill="white"/>
</clipPath>
</defs>
</svg>
