<svg width="6" height="8" viewBox="0 0 6 8" fill="none" xmlns="http://www.w3.org/2000/svg">
<path d="M3.36584 6.38508C3.59084 6.38508 3.77984 6.35808 3.93284 6.30408C4.08584 6.25008 4.20734 6.17808 4.29734 6.08808C4.39034 5.99808 4.45634 5.89308 4.49534 5.77308C4.53734 5.65308 4.55834 5.52558 4.55834 5.39058C4.55834 5.24958 4.53584 5.12358 4.49084 5.01258C4.44584 4.89858 4.37534 4.80258 4.27934 4.72458C4.18334 4.64358 4.05884 4.58208 3.90584 4.54008C3.75584 4.49808 3.57434 4.47708 3.36134 4.47708H2.14184V6.38508H3.36584ZM2.14184 1.75908V3.64008H3.10484C3.51884 3.64008 3.83084 3.56508 4.04084 3.41508C4.25384 3.26508 4.36034 3.02658 4.36034 2.69958C4.36034 2.36058 4.26434 2.11908 4.07234 1.97508C3.88034 1.83108 3.58034 1.75908 3.17234 1.75908H2.14184ZM3.17234 0.823078C3.59834 0.823078 3.96284 0.863578 4.26584 0.944578C4.56884 1.02558 4.81634 1.14108 5.00834 1.29108C5.20334 1.44108 5.34584 1.62258 5.43584 1.83558C5.52584 2.04858 5.57084 2.28858 5.57084 2.55558C5.57084 2.70858 5.54834 2.85558 5.50334 2.99658C5.45834 3.13458 5.38784 3.26508 5.29184 3.38808C5.19884 3.50808 5.07884 3.61758 4.93184 3.71658C4.78784 3.81558 4.61534 3.89958 4.41434 3.96858C5.30834 4.16958 5.75534 4.65258 5.75534 5.41758C5.75534 5.69358 5.70284 5.94858 5.59784 6.18258C5.49284 6.41658 5.33984 6.61908 5.13884 6.79008C4.93784 6.95808 4.69034 7.09008 4.39634 7.18608C4.10234 7.28208 3.76634 7.33008 3.38834 7.33008H0.931336V0.823078H3.17234Z" fill="white"/>
</svg>
